# xmcd
#
# Track frame offsets: 
#        172
#        14640
#        36092
#        49050
#        72745
#        91002
#
# Disc length: 1447 seconds
#
# Revision: 0
# Processed by: cddbd v1.5.2PL0 Copyright (c) Steve Scherf et al.
# Submitted via: ExactAudioCopy v0.99pb3
#
DISCID=4c05a506
DTITLE=Fried Bourbon - Almost Late
DYEAR=1900
DGENRE=Blues
TTITLE0=The Neighborhood
TTITLE1=Almost Late
TTITLE2=On The Run
TTITLE3=Jukebox Boogie
TTITLE4=I Saw Him
TTITLE5=Everything's Gonna Be Allright
EXTD=
EXTT0=
EXTT1=
EXTT2=
EXTT3=
EXTT4=
EXTT5=
PLAYORDER=
